<svg width="830" height="163" viewBox="0 0 830 163" fill="none" xmlns="http://www.w3.org/2000/svg">
<g clip-path="url(#clip0_943_2769)">
<path opacity="0.55" d="M34.8492 18.81L32.8392 23.51C31.6292 23.01 30.2292 22.81 28.8192 22.81C23.0892 22.81 16.1592 26.91 12.4492 30.02V25.52C15.7592 22.62 22.5892 18.21 30.1292 18.21C31.7392 18.21 33.3392 18.41 34.8492 18.81ZM81.7592 18.91L80.5492 23.41C87.9792 25.61 93.1092 33.62 93.1092 44.93C93.1092 46.03 93.0092 47.13 92.9092 48.23L98.4292 48.83C98.5292 47.53 98.6292 46.23 98.6292 44.83C98.6292 30.32 91.6992 21.31 81.7592 18.91ZM142.829 19.41L125.959 63.64L128.669 70.44L148.859 19.4H142.829V19.41ZM180.989 18.91L179.779 23.41C187.209 25.61 192.339 33.62 192.339 44.93C192.339 46.03 192.239 47.13 192.139 48.23L197.659 48.83C197.759 47.53 197.859 46.23 197.859 44.83C197.859 30.32 190.929 21.31 180.989 18.91ZM301.719 18.91L300.509 23.41C307.939 25.61 313.069 33.62 313.069 44.93C313.069 46.03 312.969 47.13 312.869 48.23L318.389 48.83C318.489 47.53 318.589 46.23 318.589 44.83C318.589 30.32 311.659 21.31 301.719 18.91ZM250.089 18.21C242.559 18.21 235.729 22.61 232.409 25.52V30.02C236.129 26.92 243.059 22.81 248.779 22.81C250.189 22.81 251.589 23.01 252.799 23.51L254.809 18.81C253.299 18.41 251.699 18.21 250.089 18.21ZM329.089 70.45H334.609V32.52H329.089V70.45ZM381.239 22.72C386.459 22.72 392.189 24.72 395.199 26.42V21.62C392.989 20.32 387.569 18.22 381.139 18.22C371.399 18.22 362.659 23.42 358.639 33.13L363.959 34.93C367.069 27.42 373.399 22.72 381.239 22.72ZM414.309 70.45H419.829V19.41H414.309V70.45ZM437.309 31.32C437.309 25.62 442.929 22.71 448.559 22.71C453.079 22.71 457.099 24.51 460.209 26.11H462.619V21.51C459.909 19.81 454.079 18.21 448.859 18.21C440.519 18.21 432.089 23.01 431.779 31.42H437.299V31.32H437.309ZM490.739 38.13L487.119 41.93L503.689 70.45H510.419L490.729 38.13H490.739Z" fill="#001965"/>
<path d="M34.85 18.81L32.84 23.51C36.15 24.81 38.57 27.81 38.57 33.12V70.45H44.09V33.32C44.09 24.71 40.17 20.31 34.85 18.81ZM11.45 19.41H6.93V30.02V70.45H12.45V25.52L11.45 19.42V19.41ZM254.82 18.81L252.81 23.51C256.12 24.81 258.54 27.81 258.54 33.12V70.45H264.06V33.32C264.06 24.71 260.14 20.31 254.82 18.81ZM231.41 19.41H226.89V70.45H232.41V25.52L231.41 19.42V19.41ZM92.91 48.23C91.91 59.34 85.28 67.14 76.04 67.14C66.8 67.14 60.37 59.63 59.27 48.83C59.17 47.53 59.07 46.23 59.07 44.93C59.07 33.52 64.19 25.62 71.63 23.31C73.04 22.91 74.54 22.71 76.05 22.71C77.66 22.71 79.16 22.91 80.57 23.41L81.78 18.91C79.97 18.41 78.06 18.21 76.05 18.21C74.04 18.21 72.33 18.41 70.53 18.81C60.59 21.21 53.56 30.22 53.56 44.83C53.56 46.43 53.66 47.93 53.76 49.43C55.37 64.24 64.51 71.65 76.06 71.65C87.61 71.65 97.15 63.94 98.46 48.83L92.94 48.23H92.91ZM125.95 63.64H125.75L108.57 19.41H102.44L122.63 70.45H128.66L125.95 63.65V63.64ZM192.14 48.23C191.14 59.34 184.51 67.14 175.27 67.14C166.03 67.14 159.6 59.63 158.5 48.83C158.4 47.53 158.3 46.23 158.3 44.93C158.3 33.52 163.42 25.62 170.86 23.31C172.27 22.91 173.77 22.71 175.28 22.71C176.89 22.71 178.39 22.91 179.8 23.41L181.01 18.91C179.2 18.41 177.29 18.21 175.28 18.21C173.27 18.21 171.56 18.41 169.76 18.81C159.82 21.21 152.79 30.22 152.79 44.83C152.79 46.43 152.89 47.93 152.99 49.43C154.6 64.24 163.74 71.65 175.29 71.65C186.84 71.65 196.38 63.94 197.69 48.83L192.17 48.23H192.14ZM312.87 48.23C311.87 59.34 305.24 67.14 296 67.14C286.76 67.14 280.33 59.63 279.23 48.83C279.13 47.53 279.03 46.23 279.03 44.93C279.03 33.52 284.15 25.62 291.59 23.31C293 22.91 294.5 22.71 296.01 22.71C297.62 22.71 299.12 22.91 300.53 23.41L301.74 18.91C299.93 18.41 298.02 18.21 296.01 18.21C294 18.21 292.29 18.41 290.49 18.81C280.55 21.21 273.52 30.22 273.52 44.83C273.52 46.43 273.62 47.93 273.72 49.43C275.33 64.24 284.47 71.65 296.02 71.65C307.57 71.65 317.11 63.94 318.42 48.83L312.9 48.23H312.87ZM334.51 27.82L333.61 19.41H329.09V32.52H334.61C336.82 29.72 341.84 24.61 349.07 24.61C350.07 24.61 351.48 24.71 351.98 24.81V18.21C343.94 18.21 337.01 23.61 334.5 27.82H334.51ZM395.2 1.4V61.14C393.09 62.94 387.47 67.14 380.43 67.14C373.39 67.14 365.36 63.94 362.85 54.23C362.25 51.93 361.85 49.13 361.85 46.02C361.85 41.92 362.55 38.11 363.96 34.91L358.64 33.11C357.13 36.71 356.33 41.02 356.33 45.92C356.33 49.72 356.83 53.13 357.74 56.03C361.05 67.14 370.09 71.64 379.54 71.64C388.08 71.64 393.2 67.74 395.31 66.04L396.21 70.44H400.73V1.4H395.21H395.2ZM412.2 4.8C412.2 2.2 414.41 0 417.02 0C419.63 0 421.84 2.2 421.84 4.8C421.84 7.4 419.63 9.6 417.02 9.6C414.41 9.6 412.2 7.4 412.2 4.8ZM437.31 31.42H431.79V31.92C431.79 47.63 458.71 45.93 459.01 58.04V58.24C459.01 64.44 452.98 67.15 447.26 67.15C442.74 67.15 437.52 65.15 433.9 63.45H431.39V68.05C433.9 69.85 441.53 71.65 446.76 71.65C455.4 71.65 464.24 66.85 464.54 58.04V57.64C464.54 41.53 437.52 43.63 437.32 31.42H437.31ZM502.29 19.41L484.81 38.02L479.39 43.82V1.4H473.87V70.45H479.39V50.14L487.12 41.93L490.74 38.13L508.62 19.42H502.29V19.41ZM6.93 156.92H20.09V115.79H29.23V105.88H20.09V101.98C20.09 97.08 23 96.28 25.92 96.28C27.53 96.28 29.64 96.58 30.74 96.98V87.37C29.03 86.77 26.32 86.47 23.81 86.47C15.47 86.47 6.94 89.27 6.94 101.68V105.88H0V115.79H6.93V156.92ZM57.45 158.12C71.01 158.12 81.76 149.11 81.76 131.3C81.76 113.49 71.21 104.68 57.45 104.68C43.69 104.68 33.24 114.09 33.24 131.4C33.24 148.71 43.79 158.12 57.45 158.12ZM57.45 148.12C50.42 148.12 46.4 141.01 46.4 131.31C46.4 121.1 51.12 114.6 57.45 114.6C63.78 114.6 68.5 121.2 68.5 131.51C68.5 141.12 64.08 148.12 57.45 148.12ZM104.56 158.12C110.79 158.12 116.61 154.02 119.33 151.42L120.33 156.92H131.98V105.88H118.72V143.61C116.61 145.31 112.69 147.71 109.38 147.71C106.07 147.71 103.25 145.71 103.25 141.11V105.88H89.99V141.81C89.99 153.72 96.62 158.12 104.55 158.12H104.56ZM143.73 156.92H156.99V119.09C159.1 117.29 163.12 114.99 166.33 114.99C169.54 114.99 172.46 116.99 172.46 121.69V156.92H185.72V120.99C185.72 109.08 179.09 104.68 170.95 104.68C164.72 104.68 159 108.78 156.29 111.38L155.29 105.88H143.74V156.92H143.73ZM213.83 158.12C221.06 158.12 225.48 154.32 227.29 152.62L228.29 156.92H240.14V87.87H226.88V107.28C225.27 106.28 221.36 104.68 216.63 104.68C204.28 104.68 193.83 114.49 193.83 132.4C193.83 150.31 203.57 158.12 213.82 158.12H213.83ZM218.76 148.12C213.24 148.12 207.11 144.22 207.11 131.91C207.11 121.7 212.13 114.6 219.26 114.6C222.17 114.6 225.19 115.7 226.89 116.7V145.12C225.68 146.02 222.67 148.12 218.75 148.12H218.76ZM262.45 158.12C268.07 158.12 273.5 155.02 276.21 152.32L276.61 156.92H288.76V122.8C288.76 110.89 282.23 104.69 269.88 104.69C262.35 104.69 255.72 106.29 252.1 107.39V117.9H256.42C259.03 116.1 263.35 114.6 266.46 114.6C271.28 114.6 275.5 117.3 275.5 122.71V127.41L263.85 128.81C252.2 130.21 248.38 135.01 248.38 143.92C248.38 153.53 255.21 158.13 262.44 158.13L262.45 158.12ZM267.87 148.92C263.25 148.92 260.74 146.32 260.74 142.52C260.74 138.12 263.75 135.61 270.18 135.61C271.59 135.61 274 135.61 275.5 135.91V146.12C273.79 147.62 270.48 148.92 267.87 148.92ZM315.78 157.62C319.6 157.62 322.91 156.82 325.92 155.62V146.61C324.61 147.21 322.4 147.81 320.5 147.81C317.29 147.81 314.88 145.21 314.88 140.5V115.78H326.03V105.87H314.88V95.16H305.74C304.84 103.57 302.93 107.17 296 107.67V115.78H301.73V141.1C301.73 152.71 308.06 157.61 315.79 157.61L315.78 157.62ZM342.39 100.48C346.31 100.48 349.72 97.08 349.72 92.97C349.72 88.86 346.3 85.56 342.39 85.56C338.27 85.56 334.76 88.96 334.76 92.97C334.76 96.98 338.28 100.48 342.39 100.48ZM335.76 156.92H349.02V105.88H335.76V156.92ZM381.77 158.12C395.33 158.12 406.08 149.11 406.08 131.3C406.08 113.49 395.53 104.68 381.77 104.68C368.01 104.68 357.56 114.09 357.56 131.4C357.56 148.71 368.11 158.12 381.77 158.12ZM381.77 148.12C374.74 148.12 370.72 141.01 370.72 131.31C370.72 121.1 375.44 114.6 381.77 114.6C388.1 114.6 392.82 121.2 392.82 131.51C392.82 141.12 388.4 148.12 381.77 148.12ZM414.31 156.92H427.57V119.09C429.68 117.29 433.7 114.99 436.91 114.99C440.12 114.99 443.04 116.99 443.04 121.69V156.92H456.3V120.99C456.3 109.08 449.67 104.68 441.53 104.68C435.3 104.68 429.58 108.78 426.87 111.38L425.87 105.88H414.32V156.92H414.31Z" fill="#001965"/>
<path d="M609.441 153.01C607.971 153.01 606.311 152.91 604.461 152.7C602.601 152.49 600.801 152.21 599.051 151.86V137.74H604.191C604.681 138.3 605.311 138.79 606.081 139.2C606.851 139.62 607.721 139.83 608.701 139.83C610.381 139.83 611.971 139.31 613.481 138.26C614.981 137.21 616.091 135.64 616.791 133.55L618.781 127.9H613.851L598.631 74.5701H614.901L623.611 113.68H623.821L634.111 74.5701H650.171L630.651 135.74C628.691 141.8 625.981 146.2 622.521 148.92C619.061 151.64 614.701 153 609.451 153L609.441 153.01Z" fill="#001965"/>
<path d="M676.53 129.33C668.62 129.33 662.38 127.08 657.8 122.59C653.22 118.09 650.93 111.1 650.93 101.62C650.93 96.88 651.54 92.73 652.77 89.18C653.99 85.62 655.69 82.7 657.86 80.4C660.03 78.1 662.6 76.38 665.57 75.22C668.54 74.07 671.75 73.5 675.17 73.5C682.31 73.5 687.67 75.59 691.28 79.77C694.88 83.95 696.68 90.16 696.68 98.38V104.76H667.29V106.01C667.5 110.75 668.85 113.78 671.33 115.11C673.81 116.44 676.52 117.1 679.46 117.1C681.84 117.1 683.9 116.73 685.65 116C687.4 115.27 689.04 114.41 690.58 113.44H695.83V125.88C695.06 126.16 693.98 126.51 692.58 126.92C691.18 127.34 689.61 127.72 687.86 128.07C686.11 128.42 684.25 128.71 682.3 128.96C680.34 129.2 678.41 129.33 676.53 129.33ZM667.3 95.14H681.68V93.78C681.68 90.71 680.88 88.6 679.27 87.45C677.66 86.3 676.12 85.72 674.65 85.72C672.9 85.72 671.24 86.4 669.67 87.76C668.1 89.12 667.31 91.19 667.31 93.98V95.13L667.3 95.14Z" fill="#001965"/>
<path d="M718.851 129.33C717.101 129.33 715.351 129.07 713.601 128.55C711.851 128.03 710.311 127.19 708.981 126.04C707.651 124.89 706.571 123.37 705.731 121.49C704.891 119.61 704.471 117.27 704.471 114.49C704.471 109.89 705.501 106.37 707.571 103.93C709.631 101.49 713.611 99.85 719.481 99.01L731.871 97.34V92.74C731.871 90.23 731.151 88.44 729.721 87.36C728.291 86.28 726.171 85.74 723.371 85.74C721.271 85.74 719.421 86.07 717.811 86.73C716.201 87.39 714.801 88.21 713.611 89.19H708.471V76.22C710.291 75.52 713.051 74.9 716.761 74.34C720.471 73.78 724.211 73.5 727.991 73.5C734.361 73.5 739.321 74.98 742.891 77.94C746.461 80.9 748.241 85.9 748.241 92.94V128.07H733.231L732.711 123.26C731.381 124.79 729.441 126.19 726.891 127.44C724.331 128.69 721.661 129.32 718.861 129.32L718.851 129.33ZM725.781 118.46C726.901 118.46 728.071 118.22 729.301 117.73C730.521 117.24 731.381 116.82 731.871 116.48V107.28C731.031 107.21 730.211 107.14 729.401 107.07C728.591 107 727.841 106.97 727.141 106.97C724.971 106.97 723.171 107.37 721.741 108.17C720.311 108.97 719.591 110.52 719.591 112.82C719.591 114.77 720.241 116.2 721.531 117.11C722.821 118.02 724.241 118.47 725.781 118.47V118.46Z" fill="#001965"/>
<path d="M756.75 128.67V75.3401H771.34L772.39 83.9201C773.51 80.9201 775.24 78.5001 777.59 76.6501C779.93 74.8001 783.13 73.9801 787.19 74.1901V90.6101C786.7 90.5401 786 90.4501 785.09 90.3501C784.18 90.2501 783.41 90.1901 782.78 90.1901C781.03 90.1901 779.26 90.4901 777.48 91.0801C775.7 91.6701 774.24 92.5301 773.13 93.6401V128.67H756.76H756.75Z" fill="#001965"/>
<path d="M809.319 129.33C806.869 129.33 804.279 129.02 801.549 128.39C798.819 127.76 796.229 126.96 793.779 125.99V113.44H798.919C800.249 114.35 801.769 115.18 803.489 115.95C805.199 116.72 806.969 117.1 808.789 117.1C810.609 117.1 811.889 116.73 812.829 116C813.769 115.27 814.249 114.24 814.249 112.92C814.249 111.11 813.179 109.66 811.049 108.58C808.909 107.5 806.589 106.28 804.069 104.92C801.549 103.56 799.219 101.77 797.089 99.54C794.949 97.31 793.889 94.14 793.889 90.02C793.889 87.3 794.419 84.9 795.459 82.8C796.509 80.71 797.959 78.98 799.819 77.62C801.669 76.26 803.839 75.23 806.329 74.54C808.809 73.84 811.489 73.5 814.359 73.5C816.809 73.5 819.429 73.78 822.229 74.34C825.029 74.9 827.299 75.6 829.049 76.43V88.98H823.909C822.719 88.21 821.389 87.48 819.919 86.78C818.449 86.08 816.909 85.73 815.299 85.73C813.689 85.73 812.479 86.03 811.469 86.62C810.449 87.21 809.949 88.24 809.949 89.7C809.949 91.31 810.999 92.61 813.099 93.62C815.199 94.63 817.489 95.82 819.969 97.18C822.449 98.54 824.749 100.35 826.839 102.62C828.939 104.89 829.989 108.08 829.989 112.19C829.989 115.05 829.429 117.54 828.309 119.67C827.189 121.8 825.679 123.58 823.799 125C821.909 126.43 819.719 127.51 817.239 128.24C814.759 128.97 812.119 129.34 809.319 129.34V129.33Z" fill="#001965"/>
<path d="M540.75 0H538.75V156.89H540.75V0Z" fill="#001965"/>
<path d="M629.469 60.97H626.299V3.19004H603.719L574.099 22V41.64L601.789 27.31V60.97H598.619V32.51L570.939 46.84V20.27L602.799 0.0400391H629.469V60.97Z" fill="#001965"/>
<path d="M729.431 61.24L726.261 61.15L726.291 60.06C725.671 41.3 721.931 27.13 715.191 18.05C707.771 8.06004 697.951 3.20004 685.191 3.20004C672.431 3.20004 662.581 8.06004 655.091 18.06C648.171 27.3 644.401 41.83 643.881 61.25L640.711 61.17C641.251 41.09 645.231 25.96 652.551 16.18C660.571 5.46004 671.551 0.0400391 685.191 0.0400391C698.831 0.0400391 709.791 5.47004 717.741 16.17C724.871 25.77 728.811 40.54 729.461 60.06L729.431 61.24Z" fill="#001965"/>
<path d="M697.971 61.2199C697.861 55.0099 697.511 49.6899 696.951 45.4299C696.251 40.1699 695.261 36.0299 694.011 33.1299C692.821 30.3699 691.461 28.4599 689.971 27.4399C686.991 25.3999 683.401 25.3999 680.311 27.4599C678.781 28.4699 677.441 30.3799 676.301 33.1199C675.101 36.0299 674.131 40.1799 673.441 45.4499C672.871 49.7299 672.531 55.0399 672.421 61.2399L669.301 61.1799C669.411 54.8599 669.771 49.4299 670.351 45.0399C671.081 39.4999 672.121 35.0899 673.421 31.9399C674.791 28.6199 676.531 26.2499 678.581 24.8799C682.691 22.1499 687.751 22.1599 691.741 24.8899C693.741 26.2699 695.421 28.5699 696.871 31.9099C698.241 35.0799 699.311 39.4899 700.041 45.0399C700.621 49.4199 700.971 54.8499 701.091 61.1899L697.971 61.2499V61.2199Z" fill="#001965"/>
<path d="M826.711 61.23C826.191 41.82 822.451 27.29 815.581 18.04C808.151 8.05004 798.341 3.19004 785.581 3.19004C772.821 3.19004 762.971 8.05004 755.481 18.05C748.691 27.13 744.921 41.29 744.301 60.16L744.331 61.15L741.161 61.23L741.131 60.16C741.781 40.53 745.751 25.76 752.941 16.16C760.951 5.46004 771.931 0.0400391 785.581 0.0400391C799.231 0.0400391 810.181 5.47004 818.131 16.17C825.391 25.95 829.341 41.08 829.881 61.15L826.711 61.23Z" fill="#001965"/>
<path d="M798.35 61.2199C798.24 55.0099 797.89 49.6899 797.33 45.4299C796.63 40.1699 795.64 36.0299 794.39 33.1299C793.19 30.3699 791.84 28.4599 790.35 27.4399C788.86 26.4199 787.3 25.9199 785.57 25.9199C783.84 25.9199 782.24 26.4199 780.68 27.4499C779.15 28.4599 777.81 30.3699 776.67 33.1099C775.47 36.0199 774.5 40.1699 773.81 45.4399C773.24 49.7199 772.9 55.0299 772.79 61.2299L769.67 61.1699C769.78 54.8499 770.14 49.4199 770.72 45.0299C771.45 39.4899 772.49 35.0799 773.79 31.9299C775.16 28.6099 776.9 26.2399 778.95 24.8699C783.06 22.1399 788.12 22.1499 792.11 24.8799C794.11 26.2599 795.79 28.5499 797.24 31.8999C798.61 35.0699 799.68 39.4799 800.41 45.0299C800.99 49.4099 801.34 54.8399 801.46 61.1799L798.34 61.2399L798.35 61.2199Z" fill="#001965"/>
<path d="M657.61 156.98C657.11 156.98 656.63 156.9 656.16 156.75C655.69 156.59 655.28 156.35 654.93 156.02C654.58 155.69 654.29 155.28 654.07 154.79C653.85 154.3 653.74 153.73 653.74 153.07C653.74 151.86 654.05 150.9 654.67 150.21C655.29 149.52 656.4 149.08 658.01 148.9L661.22 148.51V147.21C661.22 146.47 660.97 145.92 660.47 145.54C659.97 145.16 659.39 144.97 658.72 144.97C658.3 144.97 657.81 145.06 657.28 145.25C656.74 145.43 656.3 145.65 655.95 145.88H654.76V142.98C655.26 142.83 655.94 142.67 656.81 142.5C657.68 142.33 658.63 142.24 659.66 142.24C661.36 142.24 662.65 142.66 663.54 143.51C664.43 144.36 664.87 145.6 664.87 147.24V156.65H661.52L661.41 155.38C661.04 155.75 660.51 156.11 659.82 156.46C659.13 156.81 658.39 156.98 657.62 156.98H657.61ZM659.11 154.44C659.46 154.44 659.84 154.36 660.25 154.21C660.66 154.05 660.98 153.87 661.22 153.67V150.86C661.02 150.82 660.77 150.8 660.47 150.79C660.17 150.79 659.93 150.78 659.75 150.78C658.86 150.78 658.21 150.95 657.78 151.28C657.36 151.61 657.14 152.08 657.14 152.69C657.14 153.21 657.31 153.63 657.65 153.96C657.99 154.29 658.48 154.46 659.1 154.46L659.11 154.44Z" fill="#001965"/>
<path d="M674.781 163V142.58H678.161L678.411 143.57C678.691 143.33 679.131 143.05 679.751 142.73C680.371 142.41 681.131 142.25 682.041 142.25C683.701 142.25 685.051 142.85 686.071 144.04C687.091 145.24 687.611 146.93 687.611 149.12C687.611 150.43 687.431 151.57 687.071 152.56C686.711 153.54 686.221 154.36 685.621 155.02C685.011 155.67 684.301 156.17 683.501 156.5C682.701 156.83 681.861 157 680.991 157C680.471 157 679.971 156.94 679.491 156.82C679.011 156.7 678.661 156.61 678.441 156.56V163.02H674.781V163ZM678.441 145.72V153.7C678.621 153.79 678.911 153.9 679.301 154.03C679.691 154.16 680.091 154.22 680.521 154.22C680.951 154.22 681.341 154.11 681.751 153.88C682.171 153.65 682.541 153.33 682.871 152.91C683.201 152.5 683.471 151.99 683.671 151.39C683.871 150.79 683.971 150.13 683.971 149.39C683.971 147.84 683.631 146.72 682.951 146.02C682.271 145.32 681.521 144.97 680.711 144.97C680.211 144.97 679.761 145.06 679.351 145.23C678.941 145.4 678.641 145.57 678.441 145.71V145.72Z" fill="#001965"/>
<path d="M690.85 156.65V142.57H694.06L694.34 144.83C694.49 144.55 694.7 144.26 694.98 143.96C695.26 143.66 695.58 143.38 695.94 143.13C696.3 142.88 696.7 142.67 697.13 142.51C697.56 142.34 698.01 142.26 698.47 142.26V145.96C698.38 145.94 698.22 145.92 698 145.9C697.78 145.88 697.58 145.87 697.39 145.87C696.67 145.87 696.06 146.02 695.58 146.31C695.09 146.6 694.73 146.86 694.51 147.08V156.63H690.85V156.65Z" fill="#001965"/>
<path d="M706.471 156.98C705.531 156.98 704.651 156.82 703.841 156.51C703.031 156.2 702.321 155.74 701.721 155.13C701.121 154.52 700.651 153.75 700.311 152.82C699.971 151.89 699.801 150.82 699.801 149.61C699.801 148.4 699.971 147.36 700.311 146.44C700.651 145.52 701.121 144.75 701.711 144.14C702.301 143.52 703.011 143.05 703.831 142.73C704.651 142.41 705.531 142.25 706.481 142.25C707.431 142.25 708.301 142.41 709.131 142.73C709.951 143.05 710.661 143.52 711.261 144.14C711.861 144.76 712.331 145.52 712.671 146.44C713.011 147.36 713.181 148.41 713.181 149.59C713.181 150.77 713.001 151.88 712.651 152.8C712.301 153.73 711.821 154.5 711.221 155.12C710.621 155.74 709.911 156.2 709.091 156.51C708.271 156.82 707.401 156.98 706.471 156.98ZM706.471 154.22C707.371 154.22 708.111 153.79 708.671 152.92C709.231 152.06 709.521 150.96 709.521 149.64C709.521 148.22 709.231 147.09 708.651 146.24C708.071 145.39 707.341 144.97 706.481 144.97C705.621 144.97 704.891 145.39 704.311 146.23C703.731 147.07 703.441 148.18 703.441 149.58C703.441 150.9 703.711 152.01 704.241 152.89C704.781 153.77 705.521 154.21 706.481 154.21L706.471 154.22Z" fill="#001965"/>
<path d="M716.391 156.65V142.57H719.581L719.861 144.09C720.231 143.74 720.771 143.34 721.481 142.9C722.191 142.46 722.971 142.24 723.821 142.24C724.611 142.24 725.311 142.4 725.911 142.72C726.511 143.04 726.951 143.57 727.231 144.31C727.801 143.76 728.441 143.28 729.131 142.86C729.821 142.45 730.601 142.24 731.471 142.24C732.561 142.24 733.481 142.58 734.231 143.26C734.981 143.94 735.351 145.1 735.351 146.74V156.65H731.721V146.93C731.721 146.3 731.571 145.84 731.281 145.54C730.981 145.24 730.611 145.08 730.141 145.08C729.671 145.08 729.251 145.2 728.801 145.45C728.351 145.7 727.971 145.93 727.681 146.15C727.701 146.28 727.711 146.4 727.711 146.52V156.64H724.051V146.92C724.051 146.29 723.901 145.83 723.611 145.53C723.311 145.23 722.941 145.07 722.501 145.07C722.061 145.07 721.611 145.19 721.171 145.43C720.731 145.67 720.361 145.9 720.061 146.12V156.64H716.401L716.391 156.65Z" fill="#001965"/>
<path d="M740.959 141.09C740.389 141.09 739.889 140.89 739.479 140.48C739.059 140.08 738.859 139.59 738.859 139.02C738.859 138.45 739.069 137.99 739.479 137.59C739.899 137.19 740.389 136.98 740.959 136.98C741.499 136.98 741.969 137.18 742.369 137.59C742.779 137.99 742.979 138.47 742.979 139.02C742.979 139.57 742.779 140.08 742.369 140.48C741.959 140.88 741.489 141.09 740.959 141.09ZM739.129 156.65V142.57H742.789V156.65H739.129Z" fill="#001965"/>
<path d="M749.911 156.98C749.561 156.98 749.181 156.95 748.761 156.9C748.341 156.84 747.951 156.78 747.571 156.69C747.191 156.61 746.841 156.51 746.521 156.4C746.201 156.29 745.951 156.18 745.791 156.07V153.26H746.981C747.391 153.5 747.851 153.72 748.371 153.92C748.891 154.12 749.391 154.22 749.871 154.22C750.351 154.22 750.811 154.11 751.191 153.89C751.571 153.67 751.761 153.3 751.761 152.79C751.761 152.22 751.451 151.76 750.831 151.4C750.211 151.04 749.541 150.66 748.811 150.27C748.081 149.87 747.411 149.39 746.791 148.81C746.171 148.23 745.861 147.45 745.861 146.48C745.861 145.8 746.011 145.2 746.321 144.67C746.631 144.14 747.021 143.7 747.511 143.35C748.001 143 748.561 142.72 749.191 142.54C749.821 142.36 750.461 142.26 751.101 142.26C751.841 142.26 752.571 142.34 753.301 142.51C754.031 142.68 754.581 142.86 754.951 143.06V145.88H753.761C753.431 145.68 753.051 145.48 752.621 145.29C752.191 145.1 751.741 145 751.261 145C750.781 145 750.331 145.11 749.971 145.33C749.611 145.55 749.431 145.89 749.431 146.35C749.431 146.92 749.731 147.38 750.341 147.74C750.951 148.1 751.621 148.47 752.351 148.86C753.081 149.25 753.751 149.72 754.361 150.28C754.971 150.84 755.271 151.62 755.271 152.61C755.271 153.31 755.121 153.94 754.811 154.49C754.511 155.04 754.101 155.5 753.601 155.87C753.101 156.24 752.531 156.52 751.881 156.71C751.231 156.9 750.581 157 749.911 157V156.98Z" fill="#001965"/>
<path d="M764.089 156.98C761.889 156.98 760.229 156.34 759.119 155.06C757.999 153.78 757.439 151.96 757.439 149.61C757.439 148.36 757.609 147.27 757.939 146.34C758.269 145.41 758.719 144.64 759.299 144.04C759.879 143.44 760.539 142.98 761.289 142.69C762.049 142.4 762.839 142.25 763.669 142.25C765.329 142.25 766.679 142.82 767.709 143.97C768.739 145.12 769.259 146.7 769.259 148.7V150.36H761.089V150.61C761.089 151.71 761.419 152.59 762.069 153.25C762.729 153.9 763.599 154.23 764.689 154.23C765.259 154.23 765.829 154.13 766.379 153.93C766.929 153.73 767.409 153.51 767.789 153.27H769.009V156.06C768.639 156.21 767.989 156.4 767.059 156.64C766.129 156.88 765.129 157 764.079 157L764.089 156.98ZM761.099 148.07H765.889V147.71C765.889 146.86 765.659 146.2 765.209 145.71C764.759 145.22 764.209 144.98 763.559 144.98C762.909 144.98 762.339 145.24 761.839 145.77C761.339 146.29 761.089 146.98 761.089 147.83V148.08L761.099 148.07Z" fill="#001965"/>
<path d="M778.689 156.65V137.61H782.349V148.01L786.809 142.57H790.659L786.169 147.76L790.989 156.65H786.969L783.619 150.3L782.349 151.79V156.65H778.689Z" fill="#001965"/>
<path d="M798.39 156.98C796.19 156.98 794.53 156.34 793.42 155.06C792.3 153.78 791.74 151.96 791.74 149.61C791.74 148.36 791.91 147.27 792.24 146.34C792.57 145.41 793.02 144.64 793.6 144.04C794.17 143.43 794.84 142.98 795.59 142.69C796.35 142.4 797.14 142.25 797.97 142.25C799.63 142.25 800.98 142.82 802.01 143.97C803.04 145.12 803.56 146.7 803.56 148.7V150.36H795.39V150.61C795.39 151.71 795.72 152.59 796.37 153.25C797.03 153.9 797.9 154.23 798.99 154.23C799.56 154.23 800.13 154.13 800.68 153.93C801.23 153.73 801.71 153.51 802.09 153.27H803.31V156.06C802.94 156.21 802.29 156.4 801.36 156.64C800.43 156.88 799.43 157 798.38 157L798.39 156.98ZM795.39 148.07H800.18V147.71C800.18 146.86 799.95 146.2 799.5 145.71C799.05 145.22 798.5 144.98 797.85 144.98C797.2 144.98 796.63 145.24 796.13 145.77C795.63 146.29 795.38 146.98 795.38 147.83V148.08L795.39 148.07Z" fill="#001965"/>
<path d="M806.859 163V142.58H810.239L810.489 143.57C810.769 143.33 811.209 143.05 811.829 142.73C812.449 142.41 813.209 142.25 814.119 142.25C815.779 142.25 817.129 142.85 818.149 144.04C819.169 145.24 819.689 146.93 819.689 149.12C819.689 150.43 819.509 151.57 819.149 152.56C818.789 153.54 818.299 154.36 817.699 155.02C817.099 155.68 816.379 156.17 815.579 156.5C814.779 156.83 813.939 157 813.069 157C812.549 157 812.049 156.94 811.569 156.82C811.089 156.7 810.739 156.61 810.519 156.56V163.02H806.859V163ZM810.519 145.72V153.7C810.699 153.79 810.989 153.9 811.379 154.03C811.769 154.16 812.169 154.22 812.599 154.22C813.029 154.22 813.419 154.11 813.829 153.88C814.249 153.65 814.619 153.33 814.949 152.91C815.279 152.5 815.549 151.99 815.749 151.39C815.949 150.79 816.049 150.13 816.049 149.39C816.049 147.84 815.709 146.72 815.029 146.02C814.349 145.32 813.599 144.97 812.789 144.97C812.289 144.97 811.839 145.06 811.429 145.23C811.019 145.4 810.719 145.57 810.519 145.71V145.72Z" fill="#001965"/>
<path d="M827.06 156.85C826.01 156.85 825.1 156.49 824.33 155.77C823.56 155.05 823.18 153.89 823.18 152.29V145.31H821.6V143.07C822.54 143 823.19 142.69 823.55 142.16C823.91 141.63 824.15 140.78 824.28 139.62H826.8V142.57H829.87V145.3H826.8V152.12C826.8 152.76 826.95 153.26 827.24 153.61C827.54 153.96 827.9 154.13 828.35 154.13C828.61 154.13 828.88 154.09 829.15 154.02C829.42 153.95 829.66 153.87 829.84 153.8V156.28C829.43 156.45 828.99 156.58 828.52 156.68C828.05 156.78 827.55 156.83 827.04 156.83L827.06 156.85Z" fill="#001965"/>
</g>
<defs>
<clipPath id="clip0_943_2769">
<rect width="830" height="163" fill="white"/>
</clipPath>
</defs>
</svg>
